<svg width="360" height="65" viewBox="0 0 360 65" fill="none" xmlns="http://www.w3.org/2000/svg">
<path d="M86.8182 29.6465C78.0909 46.8899 56.2727 53 41 53V0H137C109.364 0 95.5455 12.4031 86.8182 29.6465Z" fill="#F27922"/>
<rect x="-3" width="44" height="53" fill="#F27922"/>
<path d="M60.4116 35.7996C69.1789 56.6218 91.097 64.2931 106.44 64.2931V0H10C37.7629 0 51.6444 14.9774 60.4116 35.7996Z" fill="white"/>
<path d="M272.412 29.6465C281.179 46.8899 303.097 53 318.44 53V0H222C249.763 0 263.644 12.4031 272.412 29.6465Z" fill="#F27922"/>
<rect width="44" height="53" transform="matrix(-1 0 0 1 362 0)" fill="#F27922"/>
<path d="M298.588 35.7996C289.821 56.6218 267.903 64.2931 252.56 64.2931V0H349C321.237 0 307.356 14.9774 298.588 35.7996Z" fill="white"/>
<rect x="106.44" width="146.121" height="64.2931" fill="white"/>
</svg>
